<svg width="64" height="69" viewBox="0 0 64 69" fill="none" xmlns="http://www.w3.org/2000/svg">
<path d="M32 0.949768C14.3226 0.949768 0 16.145 0 34.8995C0 53.654 14.3226 68.8493 32 68.8493C49.6774 68.8493 64 53.654 64 34.8995C64 16.145 49.6774 0.949768 32 0.949768ZM32 62.2784C17.7419 62.2784 6.19355 50.0263 6.19355 34.8995C6.19355 19.7727 17.7419 7.52069 32 7.52069C46.2581 7.52069 57.8064 19.7727 57.8064 34.8995C57.8064 50.0263 46.2581 62.2784 32 62.2784ZM39.9742 47.9866L29.0194 39.5402C28.6194 39.2254 28.3871 38.7326 28.3871 38.2124V15.7343C28.3871 14.8308 29.0839 14.0916 29.9355 14.0916H34.0645C34.9161 14.0916 35.6129 14.8308 35.6129 15.7343V35.1323L44.2323 41.7853C44.929 42.3192 45.071 43.3459 44.5677 44.0851L42.1419 47.6307C41.6387 48.3562 40.671 48.5205 39.9742 47.9866V47.9866Z" fill="#717FFF"/>
</svg>
