<svg width="64" height="69" viewBox="0 0 64 69" fill="none" xmlns="http://www.w3.org/2000/svg">
<path d="M58.68 40.9096L63.9326 13.3254C64.3118 11.3338 63.0435 9.43721 61.3322 9.43721H17.6898L16.6713 3.49467C16.4176 2.01348 15.3256 0.949768 14.0588 0.949768H2.66667C1.19389 0.949768 0 2.37473 0 4.13256V6.25442C0 8.01225 1.19389 9.43721 2.66667 9.43721H10.4314L18.2368 54.9823C16.3694 56.264 15.1111 58.6673 15.1111 61.4228C15.1111 65.5243 17.8969 68.8493 21.3333 68.8493C24.7698 68.8493 27.5556 65.5243 27.5556 61.4228C27.5556 59.3442 26.8392 57.4662 25.6862 56.1181H48.9803C47.8275 57.4662 47.1111 59.3442 47.1111 61.4228C47.1111 65.5243 49.8969 68.8493 53.3333 68.8493C56.7698 68.8493 59.5556 65.5243 59.5556 61.4228C59.5556 58.4824 58.1236 55.9415 56.0468 54.7383L56.6598 51.5189C57.039 49.5272 55.7707 47.6307 54.0595 47.6307H24.2352L23.508 43.387H56.0797C57.3248 43.387 58.4041 42.3587 58.68 40.9096Z" fill="#717FFF"/>
</svg>
