<svg width="79" height="60" viewBox="0 0 79 60" fill="none" xmlns="http://www.w3.org/2000/svg">
<path d="M77.6434 32.6542L51.3977 58.8998C49.0544 61.2432 44.9925 59.6028 44.9925 56.244V41.2465H23.7461C21.6683 41.2465 19.9967 39.5749 19.9967 37.4971V22.4996C19.9967 20.4218 21.6683 18.7502 23.7461 18.7502H44.9925V3.7527C44.9925 0.409505 49.0387 -1.24647 51.3977 1.09689L77.6434 27.3425C79.0962 28.811 79.0962 31.1856 77.6434 32.6542ZM29.995 58.1187V51.8697C29.995 50.8386 29.1514 49.995 28.1203 49.995H14.9975C12.2323 49.995 9.99834 47.761 9.99834 44.9959V15.0008C9.99834 12.2357 12.2323 10.0017 14.9975 10.0017H28.1203C29.1514 10.0017 29.995 9.15805 29.995 8.12697V1.87801C29.995 0.846933 29.1514 0.00332266 28.1203 0.00332266H14.9975C6.71763 0.00332266 0 6.72096 0 15.0008V44.9959C0 53.2757 6.71763 59.9934 14.9975 59.9934H28.1203C29.1514 59.9934 29.995 59.1498 29.995 58.1187Z" fill="#717FFF"/>
</svg>
