<svg width="35" height="40" viewBox="0 0 35 40" fill="none" xmlns="http://www.w3.org/2000/svg">
<path d="M33.75 2.50001H24.375L23.6406 1.03908C23.4851 0.726744 23.2454 0.464016 22.9487 0.28045C22.6519 0.0968842 22.3099 -0.00023656 21.9609 1.36974e-05H13.0312C12.6831 -0.00132463 12.3416 0.095434 12.0459 0.279204C11.7503 0.462974 11.5123 0.726322 11.3594 1.03908L10.625 2.50001H1.25C0.918479 2.50001 0.600537 2.63171 0.366117 2.86613C0.131696 3.10055 0 3.41849 0 3.75001L0 6.25001C0 6.58153 0.131696 6.89948 0.366117 7.1339C0.600537 7.36832 0.918479 7.50001 1.25 7.50001H33.75C34.0815 7.50001 34.3995 7.36832 34.6339 7.1339C34.8683 6.89948 35 6.58153 35 6.25001V3.75001C35 3.41849 34.8683 3.10055 34.6339 2.86613C34.3995 2.63171 34.0815 2.50001 33.75 2.50001ZM4.15625 36.4844C4.21587 37.4364 4.63606 38.33 5.33129 38.9831C6.02653 39.6363 6.94453 39.9999 7.89844 40H27.1016C28.0555 39.9999 28.9735 39.6363 29.6687 38.9831C30.3639 38.33 30.7841 37.4364 30.8438 36.4844L32.5 10H2.5L4.15625 36.4844Z" fill="black"/>
</svg>
