<svg width="64" height="64" viewBox="0 0 64 64" fill="none" xmlns="http://www.w3.org/2000/svg">
<path d="M62.1748 45.2247L48.1746 39.2245C47.5765 38.9697 46.9118 38.916 46.2806 39.0715C45.6493 39.2271 45.0857 39.5835 44.6745 40.0871L38.4744 47.6622C28.7439 43.0744 20.9131 35.2436 16.3253 25.5131L23.9004 19.313C24.405 18.9025 24.7622 18.3389 24.9178 17.7074C25.0734 17.0758 25.0191 16.4108 24.7629 15.8129L18.7628 1.81265C18.4817 1.16815 17.9845 0.641935 17.357 0.324746C16.7295 0.00755657 16.0109 -0.080727 15.3253 0.0751179L2.32504 3.07517C1.66399 3.22782 1.0742 3.60003 0.65193 4.13104C0.229661 4.66206 -0.000152279 5.32052 7.57039e-08 5.99897C7.57039e-08 38.062 25.988 64 58.001 64C58.6797 64.0004 59.3384 63.7707 59.8697 63.3484C60.401 62.9261 60.7734 62.3362 60.9261 61.6749L63.9261 48.6747C64.081 47.9857 63.9908 47.2643 63.6712 46.6346C63.3515 46.0049 62.8224 45.5063 62.1748 45.2247V45.2247Z" fill="#717FFF"/>
</svg>
