<svg width="64" height="69" viewBox="0 0 64 69" fill="none" xmlns="http://www.w3.org/2000/svg">
<path d="M32 0.949768C14.3226 0.949768 0 16.145 0 34.8995C0 53.654 14.3226 68.8493 32 68.8493C49.6774 68.8493 64 53.654 64 34.8995C64 16.145 49.6774 0.949768 32 0.949768ZM32 14.0916C38.271 14.0916 43.3548 19.4852 43.3548 26.1383C43.3548 32.7914 38.271 38.185 32 38.185C25.729 38.185 20.6452 32.7914 20.6452 26.1383C20.6452 19.4852 25.729 14.0916 32 14.0916ZM32 61.1832C24.4258 61.1832 17.6387 57.5418 13.0968 51.847C15.5226 47.001 20.271 43.6608 25.8065 43.6608C26.1161 43.6608 26.4258 43.7155 26.7226 43.8113C28.4 44.3863 30.1548 44.7559 32 44.7559C33.8452 44.7559 35.6129 44.3863 37.2774 43.8113C37.5742 43.7155 37.8839 43.6608 38.1935 43.6608C43.729 43.6608 48.4774 47.001 50.9032 51.847C46.3613 57.5418 39.5742 61.1832 32 61.1832Z" fill="#717FFF"/>
</svg>
