<svg width="217" height="220" viewBox="0 0 217 220" fill="none" xmlns="http://www.w3.org/2000/svg">
<path d="M108.254 0C48.4524 0 0 49.2339 0 110C0 170.766 48.4524 220 108.254 220C168.056 220 216.508 170.766 216.508 110C216.508 49.2339 168.056 0 108.254 0ZM108.254 198.71C60.0198 198.71 20.9524 159.012 20.9524 110C20.9524 60.9879 60.0198 21.2903 108.254 21.2903C156.488 21.2903 195.556 60.9879 195.556 110C195.556 159.012 156.488 198.71 108.254 198.71ZM135.23 152.403L98.1706 125.036C96.8175 124.016 96.0317 122.419 96.0317 120.734V47.9032C96.0317 44.9758 98.3889 42.5806 101.27 42.5806H115.238C118.119 42.5806 120.476 44.9758 120.476 47.9032V110.754L149.635 132.31C151.992 134.04 152.472 137.367 150.77 139.762L142.563 151.25C140.861 153.601 137.587 154.133 135.23 152.403Z" fill="#1F2453"/>
</svg>
