<svg width="64" height="64" viewBox="0 0 64 64" fill="none" xmlns="http://www.w3.org/2000/svg">
<path d="M32.0071 15.5877C22.9265 15.5877 15.602 22.9122 15.602 31.9929C15.602 41.0735 22.9265 48.398 32.0071 48.398C41.0878 48.398 48.4123 41.0735 48.4123 31.9929C48.4123 22.9122 41.0878 15.5877 32.0071 15.5877ZM32.0071 42.6583C26.139 42.6583 21.3417 37.8753 21.3417 31.9929C21.3417 26.1104 26.1247 21.3274 32.0071 21.3274C37.8896 21.3274 42.6726 26.1104 42.6726 31.9929C42.6726 37.8753 37.8753 42.6583 32.0071 42.6583V42.6583ZM52.9098 14.9167C52.9098 17.0441 51.1964 18.7431 49.0833 18.7431C46.9559 18.7431 45.2569 17.0298 45.2569 14.9167C45.2569 12.8036 46.9702 11.0902 49.0833 11.0902C51.1964 11.0902 52.9098 12.8036 52.9098 14.9167ZM63.7751 18.8002C63.5324 13.6745 62.3616 9.13419 58.6066 5.39342C54.8658 1.65265 50.3255 0.481874 45.1998 0.224875C39.917 -0.0749582 24.083 -0.0749582 18.8002 0.224875C13.6888 0.467596 9.14847 1.63837 5.39342 5.37914C1.63837 9.11991 0.481874 13.6602 0.224874 18.7859C-0.0749582 24.0687 -0.0749582 39.9027 0.224874 45.1855C0.467596 50.3112 1.63837 54.8515 5.39342 58.5923C9.14847 62.3331 13.6745 63.5039 18.8002 63.7609C24.083 64.0607 39.917 64.0607 45.1998 63.7609C50.3255 63.5181 54.8658 62.3474 58.6066 58.5923C62.3473 54.8515 63.5181 50.3112 63.7751 45.1855C64.075 39.9027 64.075 24.083 63.7751 18.8002V18.8002ZM56.9504 50.8538C55.8367 53.6522 53.6808 55.8081 50.868 56.9361C46.6561 58.6066 36.6617 58.2211 32.0071 58.2211C27.3526 58.2211 17.3439 58.5923 13.1462 56.9361C10.3478 55.8224 8.19186 53.6665 7.06391 50.8538C5.39342 46.6418 5.77892 36.6474 5.77892 31.9929C5.77892 27.3383 5.4077 17.3296 7.06391 13.132C8.17758 10.3335 10.3335 8.17758 13.1462 7.04964C17.3582 5.37914 27.3526 5.76464 32.0071 5.76464C36.6617 5.76464 46.6704 5.39342 50.868 7.04964C53.6665 8.1633 55.8224 10.3192 56.9504 13.132C58.6209 17.3439 58.2354 27.3383 58.2354 31.9929C58.2354 36.6474 58.6209 46.6561 56.9504 50.8538Z" fill="#717FFF"/>
</svg>
