<svg width="41" height="31" viewBox="0 0 41 31" fill="none" xmlns="http://www.w3.org/2000/svg">
<path d="M40.2117 16.5898L26.9278 29.9238C25.7418 31.1143 23.6859 30.281 23.6859 28.5745V20.9551H12.9323C11.8807 20.9551 11.0346 20.1059 11.0346 19.0503V11.4308C11.0346 10.3752 11.8807 9.52597 12.9323 9.52597H23.6859V1.90654C23.6859 0.208048 25.7338 -0.633264 26.9278 0.557271L40.2117 13.8913C40.947 14.6373 40.947 15.8437 40.2117 16.5898ZM16.0951 29.527V26.3522C16.0951 25.8284 15.6682 25.3998 15.1463 25.3998H8.50436C7.1048 25.3998 5.97409 24.2648 5.97409 22.86V7.62111C5.97409 6.21628 7.1048 5.08131 8.50436 5.08131H15.1463C15.6682 5.08131 16.0951 4.65271 16.0951 4.12888V0.954116C16.0951 0.430281 15.6682 0.00168807 15.1463 0.00168807H8.50436C4.31361 0.00168807 0.913574 3.41456 0.913574 7.62111V22.86C0.913574 27.0665 4.31361 30.4794 8.50436 30.4794H15.1463C15.6682 30.4794 16.0951 30.0508 16.0951 29.527Z" fill="black"/>
</svg>
